HIERARCHY
ROOT Hips
{
	OFFSET -0.001795 -0.223333 0.028219
	CHANNELS 6 Xposition Yposition Zposition Zrotation Yrotation Xrotation 
	JOINT LeftUpLeg
	{
		OFFSET 0.069520 -0.091406 -0.006815
		CHANNELS 3 Zrotation Yrotation Xrotation
		JOINT LeftLeg
		{
			OFFSET 0.034277 -0.375199 -0.004496
			CHANNELS 3 Zrotation Yrotation Xrotation
			JOINT LeftFoot
			{
				OFFSET -0.013596 -0.397961 -0.043693
				CHANNELS 3 Zrotation Yrotation Xrotation
				JOINT LeftToe
				{
					OFFSET 0.026358 -0.055791 0.119288
					CHANNELS 3 Zrotation Yrotation Xrotation
					End Site
					{
						OFFSET 0.000000 0.000000 0.000000
					}
				}
			}
		}
	}
	JOINT RightUpLeg
	{
		OFFSET -0.067670 -0.090522 -0.004320
		CHANNELS 3 Zrotation Yrotation Xrotation
		JOINT RightLeg
		{
			OFFSET -0.038290 -0.382569 -0.008850
			CHANNELS 3 Zrotation Yrotation Xrotation
			JOINT RightFoot
			{
				OFFSET 0.015774 -0.398415 -0.042312
				CHANNELS 3 Zrotation Yrotation Xrotation
				JOINT RightToe
				{
					OFFSET -0.025372 -0.048144 0.123348
					CHANNELS 3 Zrotation Yrotation Xrotation
					End Site
					{
						OFFSET 0.000000 0.000000 0.000000
					}
				}
			}
		}
	}
	JOINT Spine
	{
		OFFSET -0.002533 0.108963 -0.026696
		CHANNELS 3 Zrotation Yrotation Xrotation
		JOINT Spine1
		{
			OFFSET 0.005487 0.135180 0.001092
			CHANNELS 3 Zrotation Yrotation Xrotation
			JOINT Spine2
			{
				OFFSET 0.001457 0.052922 0.025425
				CHANNELS 3 Zrotation Yrotation Xrotation
				JOINT Neck
				{
					OFFSET -0.002778 0.213870 -0.042857
					CHANNELS 3 Zrotation Yrotation Xrotation
					JOINT Head
					{
						OFFSET 0.005152 0.064970 0.051349
						CHANNELS 3 Zrotation Yrotation Xrotation
						End Site
						{
							OFFSET 0.000000 0.000000 0.000000
						}
					}
				}
				JOINT LeftShoulder
				{
					OFFSET 0.078845 0.121749 -0.034090
					CHANNELS 3 Zrotation Yrotation Xrotation
					JOINT LeftArm
					{
						OFFSET 0.090977 0.030469 -0.008868
						CHANNELS 3 Zrotation Yrotation Xrotation
						JOINT LeftForeArm
						{
							OFFSET 0.259612 -0.012772 -0.027456
							CHANNELS 3 Zrotation Yrotation Xrotation
							JOINT LeftHand
							{
								OFFSET 0.249234 0.008986 -0.001171
								CHANNELS 3 Zrotation Yrotation Xrotation
								End Site
								{
									OFFSET 0.000000 0.000000 0.000000
								}
							}
						}
					}
				}
				JOINT RightShoulder
				{
					OFFSET -0.081759 0.118833 -0.038615
					CHANNELS 3 Zrotation Yrotation Xrotation
					JOINT RightArm
					{
						OFFSET -0.096012 0.032551 -0.009143
						CHANNELS 3 Zrotation Yrotation Xrotation
						JOINT RightForeArm
						{
							OFFSET -0.253742 -0.013329 -0.021401
							CHANNELS 3 Zrotation Yrotation Xrotation
							JOINT RightHand
							{
								OFFSET -0.255298 0.007772 -0.005559
								CHANNELS 3 Zrotation Yrotation Xrotation
								End Site
								{
									OFFSET 0.000000 0.000000 0.000000
								}
							}
						}
					}
				}
			}
		}
	}
}
MOTION
Frames: 18
Frame Time: 0.050000
0.000000 0.934867 0.000000 -1.148872 -1.264349 1.866942 -1.624875 -0.184247 -1.966869 -1.285123 0.108240 1.586486 7.208573 15.276717 2.916450 0.000000 0.000000 0.000000 -2.523002 0.602394 -6.736855 1.679412 0.027003 7.582547 -5.255807 -13.537690 2.485237 0.000000 0.000000 0.000000 1.814801 -0.442991 7.392016 -1.613724 0.759536 1.895151 0.480333 1.718717 8.580349 4.511377 -1.249999 -18.810330 0.000000 0.000000 0.000000 -9.818868 -21.356115 8.527923 -52.842148 -25.501527 4.757054 31.959041 -61.206390 -16.195708 0.000000 0.000000 0.000000 8.912325 24.786516 10.376150 52.566993 36.365978 11.096565 -17.760181 49.601726 -5.774134 0.000000 0.000000 0.000000 
-0.000337 0.932964 0.000967 -1.210729 -1.522449 2.010554 -1.202284 -0.141402 -1.552547 -2.223212 0.238435 0.777010 7.490679 15.752832 2.191144 0.000000 0.000000 0.000000 -2.688857 0.585561 -6.550797 1.684018 0.016476 7.118162 -4.970679 -12.779987 1.918714 0.000000 0.000000 0.000000 1.854343 -0.395519 6.482087 -1.018109 0.471440 1.319618 0.103749 0.611375 9.127148 4.368827 -1.238134 -19.505070 0.000000 0.000000 0.000000 -9.139253 -19.373337 7.769800 -55.034277 -26.100358 5.333323 36.203572 -63.535566 -19.197741 0.000000 0.000000 0.000000 7.914737 25.009173 10.097759 54.065746 37.046018 11.781814 -14.481862 51.862186 -4.700665 0.000000 0.000000 0.000000 
-0.000908 0.933378 0.002124 -0.967821 -1.334789 1.619329 -1.089558 -0.112040 -1.254759 -2.688493 0.291144 0.992481 8.019384 16.764832 2.426903 0.000000 0.000000 0.000000 -3.353777 0.549777 -6.354965 2.316789 -0.080386 7.588191 -5.217674 -13.487008 2.703072 0.000000 0.000000 0.000000 2.068013 -0.408302 6.484150 -0.897591 0.427544 0.131408 0.217955 0.292997 9.590624 3.177584 -0.744170 -17.832730 0.000000 0.000000 0.000000 -9.379912 -19.141131 7.734380 -55.940874 -27.041007 5.925182 35.719341 -63.822831 -18.881339 0.000000 0.000000 0.000000 7.407594 24.691813 9.823868 55.134155 37.737219 12.408253 -15.113979 51.869671 -5.017560 0.000000 0.000000 0.000000 
-0.001901 0.932486 0.003301 -0.797838 -1.158935 1.120487 -1.403506 -0.035074 -0.513076 -2.498277 0.270647 0.733571 8.171409 17.036708 2.292696 0.000000 0.000000 0.000000 -3.682861 0.520696 -6.142852 2.797894 -0.164765 7.608180 -5.537320 -14.160056 2.448117 0.000000 0.000000 0.000000 1.727954 -0.349350 5.906932 -0.726716 0.335389 0.799109 0.648186 -0.763002 9.509967 2.561725 -0.442399 -18.413107 0.000000 0.000000 0.000000 -8.209927 -19.395935 7.854217 -58.528455 -27.323329 6.609691 38.247486 -63.777572 -20.156197 0.000000 0.000000 0.000000 5.518222 25.159433 9.547105 56.469794 39.052340 13.451992 -14.938695 52.360882 -5.171698 0.000000 0.000000 0.000000 
-0.003472 0.932924 0.004033 -0.446652 -0.577694 0.793893 -1.834031 0.051723 0.254131 -2.223948 0.244459 0.104908 7.907254 16.520736 2.350007 0.000000 0.000000 0.000000 -3.927878 0.454951 -5.362592 2.628117 -0.154679 7.028076 -5.568965 -14.219733 2.377273 0.000000 0.000000 0.000000 1.890682 -0.347462 5.717195 -0.865689 0.405731 0.549615 0.921596 -1.941134 9.763798 2.236044 -0.353536 -18.588081 0.000000 0.000000 0.000000 -7.725707 -19.446138 7.942119 -60.040689 -28.487227 7.610187 39.912963 -63.348319 -20.750155 0.000000 0.000000 0.000000 4.554007 24.658401 9.074717 58.354178 39.695382 14.269022 -16.788752 53.264233 -6.313526 0.000000 0.000000 0.000000 
-0.005746 0.933073 0.003715 -0.417925 -0.150963 1.148064 -1.864082 0.014887 -0.118527 -2.049965 0.228001 -0.221148 7.563012 15.871788 2.491597 0.000000 0.000000 0.000000 -4.030112 0.471210 -5.640650 2.719710 -0.182556 6.589358 -5.494195 -14.030201 2.202398 0.000000 0.000000 0.000000 1.748810 -0.335099 5.595533 -0.488822 0.225349 0.388549 1.188870 -2.726659 9.850582 1.289834 0.156035 -18.926898 0.000000 0.000000 0.000000 -7.299110 -19.668153 8.068535 -61.420945 -30.727775 9.292713 40.691135 -62.784779 -20.817734 0.000000 0.000000 0.000000 3.234048 25.445084 9.130513 58.769207 40.723254 14.888824 -20.086244 53.542889 -8.077733 0.000000 0.000000 0.000000 
-0.008614 0.933399 0.002157 -0.253179 -0.249337 1.273492 -1.648687 -0.039518 -0.606101 -2.566366 0.280183 0.115873 7.609720 15.950541 2.346247 0.000000 0.000000 0.000000 -4.087985 0.524633 -6.460579 2.771713 -0.180297 7.181310 -5.509965 -14.004784 1.795808 0.000000 0.000000 0.000000 1.765459 -0.373759 6.259542 -0.418759 0.205296 -0.226258 1.173121 -3.134547 9.993545 1.039917 0.252238 -19.056936 0.000000 0.000000 0.000000 -6.624528 -19.838227 8.099948 -62.109614 -32.532163 10.625873 42.921038 -62.458325 -21.956545 0.000000 0.000000 0.000000 2.687519 25.448936 9.009536 58.653029 42.027815 15.497572 -22.091872 53.829034 -9.204675 0.000000 0.000000 0.000000 
-0.012264 0.933498 -0.000000 -0.362070 -0.892637 1.852046 -1.338353 -0.150492 -1.653420 -2.688318 0.288908 0.913453 7.828929 16.365994 2.057409 0.000000 0.000000 0.000000 -3.995269 0.630487 -7.853914 3.073240 -0.214273 7.653091 -5.744865 -14.497242 1.486629 0.000000 0.000000 0.000000 2.165659 -0.460296 7.215970 -0.822676 0.396576 -0.235463 1.471838 -3.368936 9.723248 0.616840 0.439205 -19.192483 0.000000 0.000000 0.000000 -5.231631 -20.725771 8.325965 -62.311866 -35.737136 12.858191 46.337731 -59.788406 -22.781778 0.000000 0.000000 0.000000 0.517125 25.961852 8.852836 58.760674 45.271088 17.292169 -26.535367 52.459074 -11.195917 0.000000 0.000000 0.000000 
-0.016606 0.933244 -0.001937 -0.518247 -1.432252 2.112836 -1.007157 -0.234283 -2.477036 -2.759194 0.293523 1.724160 7.950557 16.600611 1.791688 0.000000 0.000000 0.000000 -3.459518 0.703426 -8.491721 3.107334 -0.210179 7.713703 -5.768211 -14.560597 1.584665 0.000000 0.000000 0.000000 2.211871 -0.528097 8.304854 -0.995933 0.477446 -0.155696 1.466362 -3.283508 9.823055 0.515901 0.486783 -19.366484 0.000000 0.000000 0.000000 -3.169863 -21.561229 8.315445 -62.204178 -38.564910 14.749708 50.338817 -57.259489 -23.949841 0.000000 0.000000 0.000000 -1.501601 26.424929 8.724876 57.609101 48.465281 18.590036 -29.989140 50.431891 -12.315294 0.000000 0.000000 0.000000 
-0.021691 0.932762 -0.003086 -0.721682 -1.734434 2.474058 -0.474412 -0.257422 -2.752986 -2.854781 0.308374 1.626409 7.908854 16.527416 1.658963 0.000000 0.000000 0.000000 -2.785235 0.773877 -8.968909 2.794260 -0.153361 7.641042 -5.744625 -14.450925 1.227972 0.000000 0.000000 0.000000 2.170345 -0.599984 9.593043 -0.912983 0.434588 0.103335 1.605689 -3.505769 9.495691 0.544865 0.427727 -19.395378 0.000000 0.000000 0.000000 -1.322382 -22.320324 8.303323 -61.451499 -41.484264 16.567961 54.526106 -54.279988 -24.798319 0.000000 0.000000 0.000000 -4.323829 26.915033 8.481620 56.366151 52.230518 20.076117 -33.591898 47.761974 -13.213044 0.000000 0.000000 0.000000 
-0.027058 0.932392 -0.003811 -1.067592 -2.404902 2.841635 0.058619 -0.340316 -3.709920 -2.890246 0.310965 2.620247 8.147763 17.001696 1.411635 0.000000 0.000000 0.000000 -1.991922 0.840188 -9.257347 2.497217 -0.106383 7.052533 -5.796282 -14.577090 1.321671 0.000000 0.000000 0.000000 2.037168 -0.641865 10.622370 -1.055235 0.501440 0.281125 1.833911 -3.300740 9.527176 0.617191 0.340026 -18.868993 0.000000 0.000000 0.000000 1.031136 -22.991457 8.102849 -60.232178 -44.174750 17.992299 58.463209 -51.525714 -25.470558 0.000000 0.000000 0.000000 -7.072880 27.806145 8.345970 53.840054 56.091649 20.928853 -36.366885 43.719572 -13.036992 0.000000 0.000000 0.000000 
-0.032293 0.932619 -0.004711 -1.313498 -2.562785 3.453339 0.677552 -0.400697 -4.538712 -3.067099 0.334147 3.071395 8.282510 17.269699 1.341034 0.000000 0.000000 0.000000 -1.174999 0.947846 -9.981944 2.161379 -0.056997 6.748853 -6.070100 -15.219993 1.367302 0.000000 0.000000 0.000000 1.688646 -0.696352 12.393670 -0.903812 0.425636 0.616087 2.051318 -2.802272 9.146699 0.510438 0.406967 -18.027809 0.000000 0.000000 0.000000 3.608214 -23.890819 7.898517 -57.116574 -47.398838 18.807650 62.273690 -47.700602 -25.417829 0.000000 0.000000 0.000000 -10.697041 28.792601 8.053282 48.833320 59.897564 20.384162 -39.664284 37.904354 -12.168373 0.000000 0.000000 0.000000 
-0.037187 0.933140 -0.006438 -1.493463 -2.484338 4.469911 0.916319 -0.527967 -6.137799 -2.835496 0.294693 3.897629 8.380420 17.461646 1.280363 0.000000 0.000000 0.000000 -0.791392 1.089260 -11.219109 2.203337 -0.066951 6.611881 -6.313172 -15.875585 1.895427 0.000000 0.000000 0.000000 1.475708 -0.771367 14.342284 -0.766568 0.361243 0.385247 2.174252 -1.866263 9.327429 0.480472 0.538632 -18.119390 0.000000 0.000000 0.000000 7.089490 -24.793780 7.496813 -53.354414 -51.409441 19.476977 64.728409 -42.821180 -23.903859 0.000000 0.000000 0.000000 -14.854694 29.483994 7.465999 40.370349 63.068859 17.336645 -42.469296 31.172648 -10.448381 0.000000 0.000000 0.000000 
-0.041641 0.933959 -0.008691 -1.644642 -2.245614 5.348552 1.311224 -0.613139 -7.374277 -2.644227 0.258949 4.479550 8.151365 17.031832 1.624578 0.000000 0.000000 0.000000 -0.437642 1.216641 -12.277791 2.255246 -0.087534 6.158969 -6.869756 -17.278478 3.162802 0.000000 0.000000 0.000000 1.386819 -0.886106 16.785025 -0.927777 0.427412 1.298369 2.572530 -0.969630 8.771471 -0.252044 1.051838 -17.385457 0.000000 0.000000 0.000000 9.663293 -25.342710 7.208234 -47.826833 -55.360168 18.915267 65.502656 -37.091096 -20.949476 0.000000 0.000000 0.000000 -18.880363 29.364344 6.682107 29.689757 65.382584 12.220686 -43.330949 23.319379 -7.623668 0.000000 0.000000 0.000000 
-0.046210 0.935111 -0.010814 -1.670615 -1.447480 6.654647 1.676024 -0.722894 -8.961970 -2.622333 0.248106 4.311296 7.764939 16.321028 2.226960 0.000000 0.000000 0.000000 -0.276035 1.375957 -13.786546 2.394558 -0.121162 5.920779 -7.182294 -18.086495 4.581954 0.000000 0.000000 0.000000 1.281181 -1.018311 19.265737 -1.012343 0.469785 0.542311 2.956365 -0.162022 9.897162 -0.015644 1.097062 -18.670971 0.000000 0.000000 0.000000 13.506464 -25.499025 6.589421 -41.758647 -58.737058 17.239554 65.162666 -31.083123 -17.323398 0.000000 0.000000 0.000000 -23.668312 28.722294 5.542396 16.984493 65.448248 5.066752 -42.051984 15.211553 -4.401985 0.000000 0.000000 0.000000 
-0.050937 0.935743 -0.012605 -1.690925 -0.588332 7.980456 2.125729 -0.816258 -10.456650 -2.387903 0.205515 4.228150 7.142910 15.243293 3.228927 0.000000 0.000000 0.000000 0.049519 1.544730 -15.261590 2.137077 -0.100833 5.408110 -8.071880 -19.992513 6.304887 0.000000 0.000000 0.000000 0.928730 -1.081407 21.222023 -1.019297 0.463352 0.785621 3.113386 0.331392 10.093992 -1.212755 1.897958 -18.806505 0.000000 0.000000 0.000000 15.545576 -25.876476 6.407298 -33.216104 -61.010192 13.405082 63.188294 -24.925692 -13.233098 0.000000 0.000000 0.000000 -26.773557 28.757095 4.857851 6.349708 63.509006 -0.829117 -39.989836 9.147451 -2.115676 0.000000 0.000000 0.000000 
-0.056207 0.937289 -0.014293 -1.838909 0.069249 9.076329 2.643725 -0.885120 -11.781366 -2.170761 0.173808 3.824931 6.602912 14.358465 4.064490 0.000000 0.000000 0.000000 0.531315 1.688054 -16.294797 1.949160 -0.084048 5.115944 -8.546411 -20.922827 7.742285 0.000000 0.000000 0.000000 0.644872 -1.177958 23.731591 -1.315533 0.613561 -0.414743 3.754462 0.633754 11.285133 -1.980007 2.392883 -18.654755 0.000000 0.000000 0.000000 17.718780 -26.109230 6.117179 -25.719911 -61.919127 9.454607 60.540250 -19.148621 -9.463245 0.000000 0.000000 0.000000 -29.541114 28.949716 4.197887 -1.541751 60.188999 -4.724144 -36.460295 5.268271 -0.759128 0.000000 0.000000 0.000000 
-0.061616 0.938160 -0.016057 -1.767360 1.159622 10.531908 2.973779 -0.996587 -13.483562 -1.881567 0.126220 3.742508 5.809199 13.052281 4.765486 0.000000 0.000000 0.000000 0.830770 1.855314 -17.797779 1.996428 -0.109855 4.609960 -9.718149 -23.031340 9.743340 0.000000 0.000000 0.000000 0.369649 -1.254988 25.260023 -1.400890 0.645834 -0.403785 3.747674 0.547727 11.615264 -3.668133 3.422497 -19.276355 0.000000 0.000000 0.000000 19.875053 -26.361982 5.866989 -16.950472 -61.528619 4.583031 57.991226 -13.524446 -6.171666 0.000000 0.000000 0.000000 -31.057642 29.601516 3.897758 -6.012369 56.518846 -6.351349 -33.736370 2.904717 -0.054005 0.000000 0.000000 0.000000 
